# AST/ASF file generated using VICON BodyLanguage
# -----------------------------------------------
:version 1.10
:name VICON
:units
  mass 1.0
  length 0.45
  angle deg
:documentation
   .ast/.asf automatically generated from VICON data using
   VICON BodyBuilder and BodyLanguage model FoxedUp or BRILLIANT.MOD
:root
   order TX TY TZ RX RY RZ
   axis XYZ
   position 0 0 0  
   orientation 0 0 0 
:bonedata
  begin
     id 1 
     name lhipjoint
     direction 0.653368 -0.678499 0.335782 
     length 2.51848 
     axis 0 0 0  XYZ
  end
  begin
     id 2 
     name lfemur
     direction 0.34202 -0.939693 0  
     length 6.57749  
     axis 0 0 20  XYZ
    dof rx ry rz
    limits (-160.0 20.0)
           (-70.0 70.0)
           (-60.0 70.0)
  end
  begin
     id 3 
     name ltibia
     direction 0.34202 -0.939693 0   
     length 7.94618   
     axis 0 0 20   XYZ
    dof rx
    limits (-10.0 170.0)
  end
  begin
     id 4 
     name lfoot
     direction 0.0811271 -0.222895 0.971461   
     length 2.31339   
     axis -90 7.62852e-016 20   XYZ
    dof rx rz
    limits (-45.0 90.0)
           (-70.0 20.0)
  end
  begin
     id 5 
     name ltoes
     direction 1.53568e-011 -4.21885e-011 1   
     length 1.15935   
     axis -90 7.62852e-016 20   XYZ
    dof rx
    limits (-90.0 20.0)
  end
  begin
     id 6 
     name rhipjoint
     direction -0.640058 -0.688614 0.340788   
     length 2.48149  
     axis 0 0 0  XYZ 
  end
  begin
     id 7 
     name rfemur
     direction -0.34202 -0.939693 0   
     length 6.57875   
     axis 0 0 -20   XYZ
    dof rx ry rz
    limits (-160.0 20.0)
           (-70.0 70.0)
           (-70.0 60.0)
  end
  begin
     id 8 
     name rtibia
     direction -0.34202 -0.939693 0   
     length 7.977   
     axis 0 0 -20   XYZ
    dof rx
    limits (-10.0 170.0)
 end
 begin
     id 9 
     name rfoot
     direction -0.0979793 -0.269196 0.958089   
     length 2.19857  
     axis -90 -7.62852e-016 -20   XYZ
    dof rx rz
    limits (-45.0 90.0)
           (-20.0 70.0)
  end
  begin
     id 10 
     name rtoes
     direction -1.53556e-011 -4.21868e-011 1   
     length 1.09838   
     axis -90 -7.62852e-016 -20   XYZ
    dof rx
    limits (-90.0 20.0)
  end
  begin
     id 11 
     name lowerback
     direction 0.0149039 0.998517 -0.0523597   
     length 2.10809   
     axis 0 0 0   XYZ
    dof rx ry rz
    limits (-20.0 45.0)
           (-30.0 30.0)
           (-30.0 30.0)
  end
  begin
     id 12 
     name upperback
     direction -0.00882659 0.999418 -0.0329624   
     length 2.1102   
     axis 0 0 0   XYZ
    dof rx ry rz
    limits (-20.0 45.0)
           (-30.0 30.0)
           (-30.0 30.0)
  end
  begin
     id 13 
     name thorax
     direction -0.0165585 0.999826 -0.0085833   
     length 2.11039   
     axis 0 0 0   XYZ
    dof rx ry rz
    limits (-20.0 45.0)
           (-30.0 30.0)
           (-30.0 30.0)
  end
  begin
     id 14 
     name lowerneck
     direction -0.0130877 0.999911 0.00260353   
     length 1.73253   
     axis 0 0 0   XYZ
    dof rx ry rz
    limits (-20.0 45.0)
           (-30.0 30.0)
           (-30.0 30.0)
  end
  begin
     id 15 
     name upperneck
     direction -0.0348454 0.928205 -0.370435   
     length 1.66692   
     axis 0 0 0   XYZ
    dof rx ry rz
    limits (-20.0 45.0)
           (-30.0 30.0)
           (-30.0 30.0)
  end
  begin
     id 16
     name head
     direction -0.00807754 0.992494 -0.122026  
     length 1.72765  
     axis 0 0 0   XYZ
    dof rx ry rz
    limits (-20.0 45.0)
           (-30.0 30.0)
           (-30.0 30.0)
  end
  begin
     id 17 
     name lclavicle
     direction 0.987582 0.144023 0.0627671  
     length 3.49235  
     axis 0 0 0   XYZ
    dof ry rz
    limits (-20.0 10.0)
           (0.0 20.0)
  end
  begin
     id 18 
     name lhumerus
     direction 1 -4.48958e-011 -1.45183e-018   
     length 5.41917   
     axis 180 -30 -90   XYZ
    dof rx ry rz
    limits (-60.0 90.0)
           (-90.0 90.0)
           (-90.0 90.0)
  end
  begin
     id 19
     name lradius
     direction 1 -4.48999e-011 5.75106e-027   
     length 2.44373   
     axis 180 -30 -90   XYZ
    dof rx
    limits (-10.0 170.0)
  end
  begin
     id 20
     name lwrist
     direction 1 -4.48987e-011 1.53461e-026   
     length 1.22186   
     axis -1.09697e-014 90 90   XYZ
    dof ry
    limits (-180.0 0.0)
 end
  begin
     id 21 
     name lhand
     direction 1 -4.48881e-011 3.06923e-026   
     length 0.727502   
     axis -1.95843e-014 90 90   XYZ
    dof rx rz
    limits (-90.0 90.0)
           (-45.0 45.0)
  end
  begin
     id 22 
     name lfingers
     direction 1 -4.48907e-011 6.13845e-026   
     length 0.586531   
     axis -3.91686e-014 90 90   XYZ
    dof rx
    limits (0.0 90.0)
  end
  begin
     id 23
     name lthumb
     direction 0.707107 -6.3487e-011 0.707107   
     length 0.842145   
     axis -90 45 2.85299e-015   XYZ
    dof rx rz
    limits (-45.0 45.0)
           (-45.0 45.0)
  end
  begin
     id 24 
     name rclavicle
     direction -0.980998 0.169556 0.0943023   
     length 3.29272  
     axis 0 0 0   XYZ 
    dof ry rz
    limits (-10.0 20.0)
           (-20.0 0.0)
  end
  begin
     id 25 
     name rhumerus
     direction -1 -1.83355e-005 2.45537e-005  
     length 5.58976   
     axis 180 30 90   XYZ
    dof rx ry rz
    limits (-90.0 60.0)
           (-90.0 90.0)
           (-90.0 90.0)
  end
  begin
     id 26 
     name rradius
     direction -1 -4.48967e-011 5.97228e-027   
     length 2.4806   
     axis 180 30 90   XYZ
    dof rx
    limits (-10.0 170.0)
  end
  begin
     id 27 
     name rwrist
     direction -1 -4.48963e-011 1.53461e-026   
     length 1.2403   
     axis -1.09697e-014 -90 -90   XYZ
    dof ry
    limits (-180.0 0.0)
  end
  begin
     id 28
     name rhand
     direction -1 -4.48881e-011 3.06923e-026   
     length 0.816009   
     axis -1.95843e-014 -90 -90   XYZ
    dof rx rz
    limits (-90.0 90.0)
           (-45.0 45.0)
  end
  begin
     id 29
     name rfingers
     direction -1 -4.49018e-011 6.13845e-026   
     length 0.657887   
     axis -3.91686e-014 -90 -90   XYZ
    dof rx
    limits (0.0 90.0)
  end
  begin
     id 30
     name rthumb
     direction -0.707107 -6.34872e-011 0.707107   
     length 0.944599   
     axis -90 -45 -2.85299e-015   XYZ
    dof rx rz
    limits (-45.0 45.0)
           (-45.0 45.0)
  end
:hierarchy
  begin
    root lhipjoint rhipjoint lowerback
    lhipjoint lfemur
    lfemur ltibia
    ltibia lfoot
    lfoot ltoes
    rhipjoint rfemur
    rfemur rtibia
    rtibia rfoot
    rfoot rtoes
    lowerback upperback
    upperback thorax
    thorax lowerneck lclavicle rclavicle
    lowerneck upperneck
    upperneck head
    lclavicle lhumerus
    lhumerus lradius
    lradius lwrist
    lwrist lhand lthumb
    lhand lfingers
    rclavicle rhumerus
    rhumerus rradius
    rradius rwrist
    rwrist rhand rthumb
    rhand rfingers
  end

#!OML:ASF F:\VICON\USERDATA\INSTALL\rory3\rory3.ASF
:FULLY-SPECIFIED
:DEGREES
1
root 1.3544 16.5944 27.8629 32.3186 7.86648 0.0950655
lowerback -17.3716 -5.26538 3.36736
upperback -12.5501 -7.35549 5.04878
thorax -3.55857 -3.75773 2.44568
lowerneck -7.37943 -16.6627 -12.5551
upperneck 15.7475 -22.9354 9.19142
head 8.60983 -10.9955 2.28588
rclavicle 2.76124e-014 2.70347e-014
rhumerus -9.96067 -4.93139 -20.2598
rradius 28.0175
rwrist -5.05292
rhand 11.1381 6.79469
rfingers 7.12502
rthumb 36.205 -19.4712
lclavicle 2.76124e-014 2.70347e-014
lhumerus 33.2713 -4.55057 12.3025
lradius 55.5925
lwrist 1.76705
lhand 19.9306 14.0464
lfingers 7.12502
lthumb 44.4704 37.7516
rfemur -56.9274 4.21498 29.1748
rtibia 40.7794
rfoot -53.0763 -31.1423
rtoes 46.4805
lfemur -9.79082 -3.28735 -26.1019
ltibia 29.8201
lfoot -13.4295 30.627
ltoes 42.4492
2
root 1.3536 16.6009 27.8666 32.4003 7.76261 0.077153
lowerback -17.2406 -5.2341 3.41336
upperback -12.647 -7.30987 5.03239
thorax -3.74245 -3.74007 2.43193
lowerneck -7.20893 -16.6879 -12.6166
upperneck 15.6452 -22.9881 9.27395
head 8.56974 -11.0265 2.32711
rclavicle 2.11053e-014 6.36111e-015
rhumerus -9.9554 -4.72437 -20.3104
rradius 28.0974
rwrist -5.29132
rhand 11.0754 6.99457
rfingers 7.12502
rthumb 36.1456 -19.286
lclavicle 2.11053e-014 6.36111e-015
lhumerus 32.9922 -4.64825 12.0701
lradius 55.7054
lwrist 1.95674
lhand 19.9971 14.0785
lfingers 7.12502
lthumb 44.5324 37.7599
rfemur -56.9186 4.27906 29.1441
rtibia 40.634
rfoot -52.8208 -31.3055
rtoes 46.2105
lfemur -10.0198 -3.70932 -26.1322
ltibia 29.7657
lfoot -17.2416 30.0518
ltoes 45.5733
3
root 1.35171 16.6071 27.87 32.5139 7.55626 0.140081
lowerback -17.084 -5.20661 3.3393
upperback -12.7659 -7.2531 4.96875
thorax -3.95446 -3.71155 2.43919
lowerneck -7.33807 -16.6904 -12.4778
upperneck 15.8533 -22.994 9.13896
head 8.62888 -11.0233 2.25156
rclavicle -9.1472e-015 1.19271e-014
rhumerus -9.99624 -4.43876 -20.3868
rradius 28.2131
rwrist -5.49668
rhand 10.9429 7.17597
rfingers 7.12502
rthumb 36.0201 -19.1356
lclavicle -9.1472e-015 1.19271e-014
lhumerus 32.638 -4.80091 11.818
lradius 55.7972
lwrist 2.13477
lhand 19.6555 13.959
lfingers 7.12502
lthumb 44.214 37.7616
rfemur -57.0315 4.08713 29.266
rtibia 40.6547
rfoot -52.0074 -31.9263
rtoes 45.4426
lfemur -10.3068 -3.85307 -26.2461
ltibia 29.6436
lfoot -18.8955 30.4529
ltoes 46.4047
4
root 1.35073 16.6119 27.8756 32.6311 7.41461 0.182612
lowerback -16.8955 -5.21277 3.27448
upperback -12.9794 -7.23511 4.99117
thorax -4.27842 -3.70032 2.53838
lowerneck -7.32776 -16.617 -12.4645
upperneck 16.1183 -22.89 8.95676
head 8.68054 -10.984 2.20473
rclavicle 1.94685e-014 -7.15625e-015
rhumerus -10.0612 -3.45968 -20.3455
rradius 28.4819
rwrist -6.17065
rhand 10.7002 7.02873
rfingers 7.12502
rthumb 35.7902 -19.3391
lclavicle 1.94685e-014 -7.15625e-015
lhumerus 32.2775 -5.11737 11.6712
lradius 55.9156
lwrist 2.23963
lhand 19.2503 14.0271
lfingers 7.12502
lthumb 43.836 37.9708
rfemur -57.1549 3.64905 29.6277
rtibia 40.6816
rfoot -50.5746 -32.9534
rtoes 44.0129
lfemur -10.5835 -3.97146 -26.2935
ltibia 29.5009
lfoot -20.9555 30.769
ltoes 47.437
5
root 1.3502 16.6175 27.8822 32.7547 7.26375 0.298298
lowerback -16.9132 -5.19488 3.11114
upperback -13.0779 -7.18842 4.99603
thorax -4.358 -3.66648 2.64477
lowerneck -7.18114 -16.576 -12.5707
upperneck 16.1725 -22.8315 8.90915
head 8.67395 -10.9713 2.22324
rclavicle 2.4612e-014 -8.74653e-015
rhumerus -10.0782 -3.0193 -20.2088
rradius 28.5613
rwrist -6.46464
rhand 10.4976 7.05675
rfingers 7.12502
rthumb 35.5981 -19.3575
lclavicle 2.4612e-014 -8.74653e-015
lhumerus 32.3129 -5.21942 11.7482
lradius 55.9666
lwrist 2.23242
lhand 19.2096 14.3102
lfingers 7.12502
lthumb 43.7981 38.268
rfemur -57.2899 3.48609 29.6294
rtibia 40.7085
rfoot -49.663 -33.6524
rtoes 42.9928
lfemur -10.8393 -4.15632 -26.4052
ltibia 29.3741
lfoot -22.1216 31.5146
ltoes 47.8493
